{
  "ffprobe_test1": {
    "frames": [
      {
        "best_effort_timestamp": 0,
        "best_effort_timestamp_time": "0.000000",
        "chroma_location": "left",
        "coded_picture_number": 0,
        "display_picture_number": 0,
        "height": 720,
        "interlaced_frame": 0,
        "key_frame": 1,
        "media_type": "video",
        "pict_type": "I",
        "pix_fmt": "yuv420p",
        "pkt_dts": 0,
        "pkt_dts_time": "0.000000",
        "pkt_pos": "3235",
        "pkt_pts": 0,
        "pkt_pts_time": "0.000000",
        "pkt_size": "13493",
        "repeat_pict": 0,
        "stream_index": 0,
        "top_field_first": 0,
        "width": 1280
      },
      {
        "best_effort_timestamp": 200000,
        "best_effort_timestamp_time": "0.020000",
        "chroma_location": "left",
        "coded_picture_number": 3,
        "display_picture_number": 0,
        "height": 720,
        "interlaced_frame": 0,
        "key_frame": 0,
        "media_type": "video",
        "pict_type": "B",
        "pix_fmt": "yuv420p",
        "pkt_dts": 200000,
        "pkt_dts_time": "0.020000",
        "pkt_pos": "31780",
        "pkt_pts": 200000,
        "pkt_pts_time": "0.020000",
        "pkt_size": "751",
        "repeat_pict": 0,
        "stream_index": 0,
        "top_field_first": 0,
        "width": 1280
      },
      {
        "best_effort_timestamp": 400000,
        "best_effort_timestamp_time": "0.040000",
        "chroma_location": "left",
        "coded_picture_number": 2,
        "display_picture_number": 0,
        "height": 720,
        "interlaced_frame": 0,
        "key_frame": 0,
        "media_type": "video",
        "pict_type": "B",
        "pix_fmt": "yuv420p",
        "pkt_dts": 400000,
        "pkt_dts_time": "0.040000",
        "pkt_pos": "27340",
        "pkt_pts": 400000,
        "pkt_pts_time": "0.040000",
        "pkt_size": "4440",
        "repeat_pict": 0,
        "stream_index": 0,
        "top_field_first": 0,
        "width": 1280
      },
      {
        "best_effort_timestamp": 600000,
        "best_effort_timestamp_time": "0.060000",
        "chroma_location": "left",
        "coded_picture_number": 4,
        "display_picture_number": 0,
        "height": 720,
        "interlaced_frame": 0,
        "key_frame": 0,
        "media_type": "video",
        "pict_type": "B",
        "pix_fmt": "yuv420p",
        "pkt_dts": 600000,
        "pkt_dts_time": "0.060000",
        "pkt_pos": "32531",
        "pkt_pts": 600000,
        "pkt_pts_time": "0.060000",
        "pkt_size": "1324",
        "repeat_pict": 0,
        "stream_index": 0,
        "top_field_first": 0,
        "width": 1280
      },
      {
        "best_effort_timestamp": 800000,
        "best_effort_timestamp_time": "0.080000",
        "chroma_location": "left",
        "coded_picture_number": 1,
        "display_picture_number": 0,
        "height": 720,
        "interlaced_frame": 0,
        "key_frame": 0,
        "media_type": "video",
        "pict_type": "P",
        "pix_fmt": "yuv420p",
        "pkt_dts": 800000,
        "pkt_dts_time": "0.080000",
        "pkt_pos": "16728",
        "pkt_pts": 800000,
        "pkt_pts_time": "0.080000",
        "pkt_size": "10612",
        "repeat_pict": 0,
        "stream_index": 0,
        "top_field_first": 0,
        "width": 1280
      },
      {
        "best_effort_timestamp": 1000000,
        "best_effort_timestamp_time": "0.100000",
        "chroma_location": "left",
        "coded_picture_number": 7,
        "display_picture_number": 0,
        "height": 720,
        "interlaced_frame": 0,
        "key_frame": 0,
        "media_type": "video",
        "pict_type": "I",
        "pix_fmt": "yuv420p",
        "pkt_dts": 1000000,
        "pkt_dts_time": "0.100000",
        "pkt_pos": "45195",
        "pkt_pts": 1000000,
        "pkt_pts_time": "0.100000",
        "pkt_size": "1805",
        "repeat_pict": 0,
        "stream_index": 0,
        "top_field_first": 0,
        "width": 1280
      },
      {
        "best_effort_timestamp": 1200000,
        "best_effort_timestamp_time": "0.120000",
        "chroma_location": "left",
        "coded_picture_number": 6,
        "display_picture_number": 0,
        "height": 720,
        "interlaced_frame": 0,
        "key_frame": 0,
        "media_type": "video",
        "pict_type": "B",
        "pix_fmt": "yuv420p",
        "pkt_dts": 1200000,
        "pkt_dts_time": "0.120000",
        "pkt_pos": "41392",
        "pkt_pts": 1200000,
        "pkt_pts_time": "0.120000",
        "pkt_size": "3803",
        "repeat_pict": 0,
        "stream_index": 0,
        "top_field_first": 0,
        "width": 1280
      },
      {
        "best_effort_timestamp": 1400000,
        "best_effort_timestamp_time": "0.140000",
        "chroma_location": "left",
        "coded_picture_number": 8,
        "display_picture_number": 0,
        "height": 720,
        "interlaced_frame": 0,
        "key_frame": 0,
        "media_type": "video",
        "pict_type": "B",
        "pix_fmt": "yuv420p",
        "pkt_dts": 1400000,
        "pkt_dts_time": "0.140000",
        "pkt_pos": "47000",
        "pkt_pts": 1400000,
        "pkt_pts_time": "0.140000",
        "pkt_size": "1411",
        "repeat_pict": 0,
        "stream_index": 0,
        "top_field_first": 0,
        "width": 1280
      },
      {
        "best_effort_timestamp": 1600000,
        "best_effort_timestamp_time": "0.160000",
        "chroma_location": "left",
        "coded_picture_number": 5,
        "display_picture_number": 0,
        "height": 720,
        "interlaced_frame": 0,
        "key_frame": 0,
        "media_type": "video",
        "pict_type": "P",
        "pix_fmt": "yuv420p",
        "pkt_dts": 1600000,
        "pkt_dts_time": "0.160000",
        "pkt_pos": "33855",
        "pkt_pts": 1600000,
        "pkt_pts_time": "0.160000",
        "pkt_size": "7537",
        "repeat_pict": 0,
        "stream_index": 0,
        "top_field_first": 0,
        "width": 1280
      },
      {
        "best_effort_timestamp": 1800000,
        "best_effort_timestamp_time": "0.180000",
        "chroma_location": "left",
        "coded_picture_number": 11,
        "display_picture_number": 0,
        "height": 720,
        "interlaced_frame": 0,
        "key_frame": 0,
        "media_type": "video",
        "pict_type": "B",
        "pix_fmt": "yuv420p",
        "pkt_dts": 1800000,
        "pkt_dts_time": "0.180000",
        "pkt_pos": "61893",
        "pkt_pts": 1800000,
        "pkt_pts_time": "0.180000",
        "pkt_size": "914",
        "repeat_pict": 0,
        "stream_index": 0,
        "top_field_first": 0,
        "width": 1280
      },
      {
        "best_effort_timestamp": 2000000,
        "best_effort_timestamp_time": "0.200000",
        "chroma_location": "left",
        "coded_picture_number": 10,
        "display_picture_number": 0,
        "height": 720,
        "interlaced_frame": 0,
        "key_frame": 1,
        "media_type": "video",
        "pict_type": "I",
        "pix_fmt": "yuv420p",
        "pkt_dts": 2000000,
        "pkt_dts_time": "0.200000",
        "pkt_pos": "56810",
        "pkt_pts": 2000000,
        "pkt_pts_time": "0.200000",
        "pkt_size": "5083",
        "repeat_pict": 0,
        "stream_index": 0,
        "top_field_first": 0,
        "width": 1280
      },
      {
        "best_effort_timestamp": 2200000,
        "best_effort_timestamp_time": "0.220000",
        "chroma_location": "left",
        "coded_picture_number": 12,
        "display_picture_number": 0,
        "height": 720,
        "interlaced_frame": 0,
        "key_frame": 0,
        "media_type": "video",
        "pict_type": "B",
        "pix_fmt": "yuv420p",
        "pkt_dts": 2200000,
        "pkt_dts_time": "0.220000",
        "pkt_pos": "62807",
        "pkt_pts": 2200000,
        "pkt_pts_time": "0.220000",
        "pkt_size": "1849",
        "repeat_pict": 0,
        "stream_index": 0,
        "top_field_first": 0,
        "width": 1280
      },
      {
        "best_effort_timestamp": 2400000,
        "best_effort_timestamp_time": "0.240000",
        "chroma_location": "left",
        "coded_picture_number": 9,
        "display_picture_number": 0,
        "height": 720,
        "interlaced_frame": 0,
        "key_frame": 0,
        "media_type": "video",
        "pict_type": "P",
        "pix_fmt": "yuv420p",
        "pkt_dts": 2400000,
        "pkt_dts_time": "0.240000",
        "pkt_pos": "48411",
        "pkt_pts": 2400000,
        "pkt_pts_time": "0.240000",
        "pkt_size": "8399",
        "repeat_pict": 0,
        "stream_index": 0,
        "top_field_first": 0,
        "width": 1280
      },
      {
        "best_effort_timestamp": 2600000,
        "best_effort_timestamp_time": "0.260000",
        "chroma_location": "left",
        "coded_picture_number": 15,
        "display_picture_number": 0,
        "height": 720,
        "interlaced_frame": 0,
        "key_frame": 0,
        "media_type": "video",
        "pict_type": "B",
        "pix_fmt": "yuv420p",
        "pkt_dts": 2600000,
        "pkt_dts_time": "0.260000",
        "pkt_pos": "106150",
        "pkt_pts": 2600000,
        "pkt_pts_time": "0.260000",
        "pkt_size": "4225",
        "repeat_pict": 0,
        "stream_index": 0,
        "top_field_first": 0,
        "width": 1280
      },
      {
        "best_effort_timestamp": 2800000,
        "best_effort_timestamp_time": "0.280000",
        "chroma_location": "left",
        "coded_picture_number": 14,
        "display_picture_number": 0,
        "height": 720,
        "interlaced_frame": 0,
        "key_frame": 0,
        "media_type": "video",
        "pict_type": "B",
        "pix_fmt": "yuv420p",
        "pkt_dts": 2800000,
        "pkt_dts_time": "0.280000",
        "pkt_pos": "88000",
        "pkt_pts": 2800000,
        "pkt_pts_time": "0.280000",
        "pkt_size": "18150",
        "repeat_pict": 0,
        "stream_index": 0,
        "top_field_first": 0,
        "width": 1280
      },
      {
        "best_effort_timestamp": 3000000,
        "best_effort_timestamp_time": "0.300000",
        "chroma_location": "left",
        "coded_picture_number": 16,
        "display_picture_number": 0,
        "height": 720,
        "interlaced_frame": 0,
        "key_frame": 0,
        "media_type": "video",
        "pict_type": "B",
        "pix_fmt": "yuv420p",
        "pkt_dts": 3000000,
        "pkt_dts_time": "0.300000",
        "pkt_pos": "110375",
        "pkt_pts": 3000000,
        "pkt_pts_time": "0.300000",
        "pkt_size": "3120",
        "repeat_pict": 0,
        "stream_index": 0,
        "top_field_first": 0,
        "width": 1280
      },
      {
        "best_effort_timestamp": 3200000,
        "best_effort_timestamp_time": "0.320000",
        "chroma_location": "left",
        "coded_picture_number": 13,
        "display_picture_number": 0,
        "height": 720,
        "interlaced_frame": 0,
        "key_frame": 0,
        "media_type": "video",
        "pict_type": "I",
        "pix_fmt": "yuv420p",
        "pkt_dts": 3200000,
        "pkt_dts_time": "0.320000",
        "pkt_pos": "64656",
        "pkt_pts": 3200000,
        "pkt_pts_time": "0.320000",
        "pkt_size": "23344",
        "repeat_pict": 0,
        "stream_index": 0,
        "top_field_first": 0,
        "width": 1280
      },
      {
        "best_effort_timestamp": 3400000,
        "best_effort_timestamp_time": "0.340000",
        "chroma_location": "left",
        "coded_picture_number": 19,
        "display_picture_number": 0,
        "height": 720,
        "interlaced_frame": 0,
        "key_frame": 0,
        "media_type": "video",
        "pict_type": "B",
        "pix_fmt": "yuv420p",
        "pkt_dts": 3400000,
        "pkt_dts_time": "0.340000",
        "pkt_pos": "165142",
        "pkt_pts": 3400000,
        "pkt_pts_time": "0.340000",
        "pkt_size": "4039",
        "repeat_pict": 0,
        "stream_index": 0,
        "top_field_first": 0,
        "width": 1280
      },
      {
        "best_effort_timestamp": 3600000,
        "best_effort_timestamp_time": "0.360000",
        "chroma_location": "left",
        "coded_picture_number": 18,
        "display_picture_number": 0,
        "height": 720,
        "interlaced_frame": 0,
        "key_frame": 0,
        "media_type": "video",
        "pict_type": "B",
        "pix_fmt": "yuv420p",
        "pkt_dts": 3600000,
        "pkt_dts_time": "0.360000",
        "pkt_pos": "143700",
        "pkt_pts": 3600000,
        "pkt_pts_time": "0.360000",
        "pkt_size": "21442",
        "repeat_pict": 0,
        "stream_index": 0,
        "top_field_first": 0,
        "width": 1280
      },
      {
        "best_effort_timestamp": 3800000,
        "best_effort_timestamp_time": "0.380000",
        "chroma_location": "left",
        "coded_picture_number": 20,
        "display_picture_number": 0,
        "height": 720,
        "interlaced_frame": 0,
        "key_frame": 0,
        "media_type": "video",
        "pict_type": "B",
        "pix_fmt": "yuv420p",
        "pkt_dts": 3800000,
        "pkt_dts_time": "0.380000",
        "pkt_pos": "169181",
        "pkt_pts": 3800000,
        "pkt_pts_time": "0.380000",
        "pkt_size": "5509",
        "repeat_pict": 0,
        "stream_index": 0,
        "top_field_first": 0,
        "width": 1280
      },
      {
        "best_effort_timestamp": 4000000,
        "best_effort_timestamp_time": "0.400000",
        "chroma_location": "left",
        "coded_picture_number": 17,
        "display_picture_number": 0,
        "height": 720,
        "interlaced_frame": 0,
        "key_frame": 0,
        "media_type": "video",
        "pict_type": "P",
        "pix_fmt": "yuv420p",
        "pkt_dts": 4000000,
        "pkt_dts_time": "0.400000",
        "pkt_pos": "113495",
        "pkt_pts": 4000000,
        "pkt_pts_time": "0.400000",
        "pkt_size": "30205",
        "repeat_pict": 0,
        "stream_index": 0,
        "top_field_first": 0,
        "width": 1280
      }
    ],
    "streams": [
      {
        "avg_frame_rate": "50/1",
        "bit_rate": "7835004",
        "bits_per_raw_sample": "8",
        "chroma_location": "left",
        "codec_long_name": "H.264 / AVC / MPEG-4 AVC / MPEG-4 part 10",
        "codec_name": "h264",
        "codec_tag": "0x31637661",
        "codec_tag_string": "avc1",
        "codec_time_base": "1/100",
        "codec_type": "video",
        "coded_height": 720,
        "coded_width": 1280,
        "disposition": {
          "attached_pic": 0,
          "clean_effects": 0,
          "comment": 0,
          "default": 1,
          "dub": 0,
          "forced": 0,
          "hearing_impaired": 0,
          "karaoke": 0,
          "lyrics": 0,
          "original": 0,
          "timed_thumbnails": 0,
          "visual_impaired": 0
        },
        "duration": "250.200000",
        "duration_ts": 2502000000,
        "has_b_frames": 2,
        "height": 720,
        "index": 0,
        "is_avc": "true",
        "level": 32,
        "nal_length_size": "4",
        "nb_read_frames": "997",
        "pix_fmt": "yuv420p",
        "profile": "High",
        "r_frame_rate": "50/1",
        "refs": 4,
        "start_pts": 0,
        "start_time": "0.000000",
        "tags": {
          "handler_name": "Bitmovin Video Handler",
          "language": "und"
        },
        "time_base": "1/10000000",
        "width": 1280
      }
    ]
  },
  "mp4dump_test1": [
    {
      "name": "ftyp",
      "header_size": 8,
      "size": 28,
      "major_brand": "isom",
      "minor_version": 1,
      "compatible_brand": "isom",
      "compatible_brand": "avc1",
      "compatible_brand": "iso5"
    },
    {
      "name": "moov",
      "header_size": 8,
      "size": 722,
      "children": [
        {
          "name": "mvhd",
          "header_size": 12,
          "size": 108,
          "timescale": 1000,
          "duration": 250200,
          "duration(ms)": 250200
        },
        {
          "name": "trak",
          "header_size": 8,
          "size": 550,
          "children": [
            {
              "name": "tkhd",
              "header_size": 12,
              "size": 92,
              "enabled": 1,
              "id": 2,
              "duration": 250200,
              "width": 480.000000,
              "height": 270.000000
            },
            {
              "name": "edts",
              "header_size": 8,
              "size": 36,
              "children": [
                {
                  "name": "elst",
                  "header_size": 12,
                  "size": 28,
                  "entry count": 1,
                  "entry/segment duration": 250200,
                  "entry/media time": 800000,
                  "entry/media rate": 1
                }
              ]
            },
            {
              "name": "mdia",
              "header_size": 8,
              "size": 414,
              "children": [
                {
                  "name": "mdhd",
                  "header_size": 12,
                  "size": 32,
                  "timescale": 10000000,
                  "duration": 0,
                  "duration(ms)": 0,
                  "language": "und"
                },
                {
                  "name": "hdlr",
                  "header_size": 12,
                  "size": 55,
                  "handler_type": "vide",
                  "handler_name": "Bitmovin Video Handler"
                },
                {
                  "name": "minf",
                  "header_size": 8,
                  "size": 319,
                  "children": [
                    {
                      "name": "vmhd",
                      "header_size": 12,
                      "size": 20,
                      "graphics_mode": 0,
                      "op_color": "0000,0000,0000"
                    },
                    {
                      "name": "dinf",
                      "header_size": 8,
                      "size": 36,
                      "children": [
                        {
                          "name": "dref",
                          "header_size": 12,
                          "size": 28,
                          "children": [
                            {
                              "name": "url ",
                              "header_size": 12,
                              "size": 12,
                              "location": "[local to file]"
                            }
                          ]
                        }
                      ]
                    },
                    {
                      "name": "stbl",
                      "header_size": 8,
                      "size": 255,
                      "children": [
                        {
                          "name": "stsd",
                          "header_size": 12,
                          "size": 179,
                          "entry-count": 1,
                          "children": [
                            {
                              "name": "avc1",
                              "header_size": 8,
                              "size": 163,
                              "data_reference_index": 1,
                              "width": 480,
                              "height": 270,
                              "compressor": "",
                              "children": [
                                {
                                  "name": "avcC",
                                  "header_size": 8,
                                  "size": 57,
                                  "Configuration Version": 1,
                                  "Profile": "Main",
                                  "Profile Compatibility": 64,
                                  "Level": 31,
                                  "NALU Length Size": 4,
                                  "Sequence Parameter": "[67 4d 40 1f ec a0 f0 47 f5 08 00 00 03 00 08 00 00 03 01 97 24 00 23 28 01 19 72 51 80 3c 60 c6 58]",
                                  "Picture Parameter": "[68 e9 3b 2c 80]"
                                },
                                {
                                  "name": "btrt",
                                  "header_size": 8,
                                  "size": 20
                                }
                              ]
                            }
                          ]
                        },
                        {
                          "name": "stts",
                          "header_size": 12,
                          "size": 16,
                          "entry_count": 0
                        },
                        {
                          "name": "stsc",
                          "header_size": 12,
                          "size": 16,
                          "entry_count": 0
                        },
                        {
                          "name": "stsz",
                          "header_size": 12,
                          "size": 20,
                          "sample_size": 0,
                          "sample_count": 0
                        },
                        {
                          "name": "stco",
                          "header_size": 12,
                          "size": 16,
                          "entry_count": 0
                        }
                      ]
                    }
                  ]
                }
              ]
            }
          ]
        },
        {
          "name": "mvex",
          "header_size": 8,
          "size": 56,
          "children": [
            {
              "name": "mehd",
              "header_size": 12,
              "size": 16,
              "duration": 250200
            },
            {
              "name": "trex",
              "header_size": 12,
              "size": 32,
              "track id": 2,
              "default sample description index": 1,
              "default sample duration": 0,
              "default sample size": 0,
              "default sample flags": 0
            }
          ]
        }
      ]
    },
    {
      "name": "sidx",
      "header_size": 12,
      "size": 1604,
      "reference_ID": 2,
      "timescale": 10000000,
      "earliest_presentation_time": 0,
      "first_offset": 0
    },
    {
      "name": "moof",
      "header_size": 8,
      "size": 484,
      "children": [
        {
          "name": "mfhd",
          "header_size": 12,
          "size": 16,
          "sequence number": 1
        },
        {
          "name": "traf",
          "header_size": 8,
          "size": 460,
          "children": [
            {
              "name": "tfhd",
              "header_size": 12,
              "size": 24,
              "track ID": 2,
              "default sample duration": 400000,
              "default sample flags": 16842752
            },
            {
              "name": "tfdt",
              "header_size": 12,
              "size": 20,
              "base media decode time": 0
            },
            {
              "name": "trun",
              "header_size": 12,
              "size": 408,
              "sample count": 48,
              "data offset": 492,
              "first sample flags": 33554432
            }
          ]
        }
      ]
    },
    {
      "name": "mdat",
      "header_size": 8,
      "size": 64690
    },
    {
      "name": "moof",
      "header_size": 8,
      "size": 484,
      "children": [
        {
          "name": "mfhd",
          "header_size": 12,
          "size": 16,
          "sequence number": 2
        },
        {
          "name": "traf",
          "header_size": 8,
          "size": 460,
          "children": [
            {
              "name": "tfhd",
              "header_size": 12,
              "size": 24,
              "track ID": 2,
              "default sample duration": 400000,
              "default sample flags": 16842752
            },
            {
              "name": "tfdt",
              "header_size": 12,
              "size": 20,
              "base media decode time": 19200000
            },
            {
              "name": "trun",
              "header_size": 12,
              "size": 408,
              "sample count": 48,
              "data offset": 492,
              "first sample flags": 33554432
            }
          ]
        }
      ]
    },
    {
      "name": "mdat",
      "header_size": 8,
      "size": 66701
    },
    {
      "name": "moof",
      "header_size": 8,
      "size": 484,
      "children": [
        {
          "name": "mfhd",
          "header_size": 12,
          "size": 16,
          "sequence number": 3
        },
        {
          "name": "traf",
          "header_size": 8,
          "size": 460,
          "children": [
            {
              "name": "tfhd",
              "header_size": 12,
              "size": 24,
              "track ID": 2,
              "default sample duration": 400000,
              "default sample flags": 16842752
            },
            {
              "name": "tfdt",
              "header_size": 12,
              "size": 20,
              "base media decode time": 38400000
            },
            {
              "name": "trun",
              "header_size": 12,
              "size": 408,
              "sample count": 48,
              "data offset": 492,
              "first sample flags": 33554432
            }
          ]
        }
      ]
    },
    {
      "name": "mdat",
      "header_size": 8,
      "size": 68971
    },
    {
      "name": "moof",
      "header_size": 8,
      "size": 484,
      "children": [
        {
          "name": "mfhd",
          "header_size": 12,
          "size": 16,
          "sequence number": 4
        },
        {
          "name": "traf",
          "header_size": 8,
          "size": 460,
          "children": [
            {
              "name": "tfhd",
              "header_size": 12,
              "size": 24,
              "track ID": 2,
              "default sample duration": 400000,
              "default sample flags": 16842752
            },
            {
              "name": "tfdt",
              "header_size": 12,
              "size": 20,
              "base media decode time": 57600000
            },
            {
              "name": "trun",
              "header_size": 12,
              "size": 408,
              "sample count": 48,
              "data offset": 492,
              "first sample flags": 33554432
            }
          ]
        }
      ]
    },
    {
      "name": "mdat",
      "header_size": 8,
      "size": 62819
    },
    {
      "name": "moof",
      "header_size": 8,
      "size": 484,
      "children": [
        {
          "name": "mfhd",
          "header_size": 12,
          "size": 16,
          "sequence number": 5
        },
        {
          "name": "traf",
          "header_size": 8,
          "size": 460,
          "children": [
            {
              "name": "tfhd",
              "header_size": 12,
              "size": 24,
              "track ID": 2,
              "default sample duration": 400000,
              "default sample flags": 16842752
            },
            {
              "name": "tfdt",
              "header_size": 12,
              "size": 20,
              "base media decode time": 76800000
            },
            {
              "name": "trun",
              "header_size": 12,
              "size": 408,
              "sample count": 48,
              "data offset": 492,
              "first sample flags": 33554432
            }
          ]
        }
      ]
    },
    {
      "name": "mdat",
      "header_size": 8,
      "size": 65224
    },
    {
      "name": "moof",
      "header_size": 8,
      "size": 484,
      "children": [
        {
          "name": "mfhd",
          "header_size": 12,
          "size": 16,
          "sequence number": 6
        },
        {
          "name": "traf",
          "header_size": 8,
          "size": 460,
          "children": [
            {
              "name": "tfhd",
              "header_size": 12,
              "size": 24,
              "track ID": 2,
              "default sample duration": 400000,
              "default sample flags": 16842752
            },
            {
              "name": "tfdt",
              "header_size": 12,
              "size": 20,
              "base media decode time": 96000000
            },
            {
              "name": "trun",
              "header_size": 12,
              "size": 408,
              "sample count": 48,
              "data offset": 492,
              "first sample flags": 33554432
            }
          ]
        }
      ]
    },
    {
      "name": "mdat",
      "header_size": 8,
      "size": 67373
    },
    {
      "name": "moof",
      "header_size": 8,
      "size": 484,
      "children": [
        {
          "name": "mfhd",
          "header_size": 12,
          "size": 16,
          "sequence number": 7
        },
        {
          "name": "traf",
          "header_size": 8,
          "size": 460,
          "children": [
            {
              "name": "tfhd",
              "header_size": 12,
              "size": 24,
              "track ID": 2,
              "default sample duration": 400000,
              "default sample flags": 16842752
            },
            {
              "name": "tfdt",
              "header_size": 12,
              "size": 20,
              "base media decode time": 115200000
            },
            {
              "name": "trun",
              "header_size": 12,
              "size": 408,
              "sample count": 48,
              "data offset": 492,
              "first sample flags": 33554432
            }
          ]
        }
      ]
    },
    {
      "name": "mdat",
      "header_size": 8,
      "size": 65573
    },
    {
      "name": "moof",
      "header_size": 8,
      "size": 484,
      "children": [
        {
          "name": "mfhd",
          "header_size": 12,
          "size": 16,
          "sequence number": 8
        },
        {
          "name": "traf",
          "header_size": 8,
          "size": 460,
          "children": [
            {
              "name": "tfhd",
              "header_size": 12,
              "size": 24,
              "track ID": 2,
              "default sample duration": 400000,
              "default sample flags": 16842752
            },
            {
              "name": "tfdt",
              "header_size": 12,
              "size": 20,
              "base media decode time": 134400000
            },
            {
              "name": "trun",
              "header_size": 12,
              "size": 408,
              "sample count": 48,
              "data offset": 492,
              "first sample flags": 33554432
            }
          ]
        }
      ]
    },
    {
      "name": "mdat",
      "header_size": 8,
      "size": 67428
    }
  ]
}